<svg width="19" height="18" viewBox="0 0 19 18" fill="none" xmlns="http://www.w3.org/2000/svg">
<path d="M16.8717 2.82611C16.4514 2.40569 15.9525 2.07219 15.4034 1.84465C14.8542 1.61711 14.2656 1.5 13.6712 1.5C13.0768 1.5 12.4882 1.61711 11.9391 1.84465C11.3899 2.07219 10.891 2.40569 10.4708 2.82611L9.59867 3.69821L8.72656 2.82611C7.87775 1.9773 6.72652 1.50044 5.52612 1.50044C4.32572 1.50044 3.17448 1.9773 2.32567 2.82611C1.47686 3.67492 1 4.82616 1 6.02656C1 7.22696 1.47686 8.37819 2.32567 9.227L9.59867 16.5L16.8717 9.227C17.2921 8.80679 17.6256 8.30785 17.8531 7.75871C18.0807 7.20957 18.1978 6.62097 18.1978 6.02656C18.1978 5.43214 18.0807 4.84355 17.8531 4.2944C17.6256 3.74526 17.2921 3.24633 16.8717 2.82611Z" stroke="#9E9E9E" stroke-width="1.5" stroke-linecap="round" stroke-linejoin="round"/>
</svg>
