<svg width="19" height="18" viewBox="0 0 19 18" fill="none" xmlns="http://www.w3.org/2000/svg">
<path d="M9.33333 4.83333C9.33333 3.94928 8.98214 3.10143 8.35702 2.47631C7.7319 1.85119 6.88405 1.5 6 1.5H1V14H6.83333C7.49637 14 8.13226 14.2634 8.6011 14.7322C9.06994 15.2011 9.33333 15.837 9.33333 16.5M9.33333 4.83333V16.5M9.33333 4.83333C9.33333 3.94928 9.68452 3.10143 10.3096 2.47631C10.9348 1.85119 11.7826 1.5 12.6667 1.5H17.6667V14H11.8333C11.1703 14 10.5344 14.2634 10.0656 14.7322C9.59672 15.2011 9.33333 15.837 9.33333 16.5" stroke="#586EB6" stroke-width="1.5" stroke-linecap="round" stroke-linejoin="round"/>
</svg>
