<svg width="17" height="18" viewBox="0 0 17 18" fill="none" xmlns="http://www.w3.org/2000/svg">
<path d="M16 8.58335C16.0028 9.68323 15.7459 10.7682 15.25 11.75C14.662 12.9265 13.7581 13.916 12.6395 14.6077C11.5209 15.2995 10.2319 15.6662 8.91665 15.6667C7.81677 15.6695 6.73175 15.4126 5.74999 14.9167L1 16.5L2.58333 11.75C2.08744 10.7682 1.83046 9.68323 1.83333 8.58335C1.83384 7.26815 2.20051 5.97906 2.89226 4.86048C3.58402 3.74189 4.57354 2.83799 5.74999 2.25002C6.73175 1.75413 7.81677 1.49716 8.91665 1.50002H9.33332C11.0703 1.59585 12.7109 2.32899 13.9409 3.55907C15.171 4.78915 15.9041 6.42973 16 8.16668V8.58335Z" stroke="#586EB6" stroke-width="1.5" stroke-linecap="round" stroke-linejoin="round"/>
</svg>
