<svg width="17" height="18" viewBox="0 0 17 18" fill="none" xmlns="http://www.w3.org/2000/svg">
<path d="M12.25 1.5H4.75C2.67893 1.5 1 3.17893 1 5.25V12.75C1 14.8211 2.67893 16.5 4.75 16.5H12.25C14.3211 16.5 16 14.8211 16 12.75V5.25C16 3.17893 14.3211 1.5 12.25 1.5Z" stroke="#181818" stroke-width="1.5" stroke-linecap="round" stroke-linejoin="round"/>
<path d="M11.5 8.5275C11.5926 9.15168 11.4859 9.78916 11.1953 10.3493C10.9047 10.9094 10.4449 11.3636 9.88122 11.6473C9.31758 11.931 8.67884 12.0297 8.05584 11.9294C7.43284 11.8292 6.85732 11.5351 6.41113 11.0889C5.96494 10.6427 5.6708 10.0672 5.57055 9.44416C5.4703 8.82116 5.56905 8.18242 5.85274 7.61878C6.13644 7.05514 6.59064 6.59531 7.15074 6.30468C7.71084 6.01406 8.34832 5.90744 8.9725 6C9.60919 6.09441 10.1986 6.3911 10.6538 6.84623C11.1089 7.30136 11.4056 7.89081 11.5 8.5275Z" stroke="#181818" stroke-width="1.5" stroke-linecap="round" stroke-linejoin="round"/>
</svg>
