<svg width="19" height="20" viewBox="0 0 19 20" fill="none" xmlns="http://www.w3.org/2000/svg">
<path d="M18.9067 6.33041C18.8628 5.33574 18.7019 4.65191 18.4715 4.05937C18.2337 3.4304 17.868 2.86728 17.3887 2.39916C16.9205 1.92375 16.3536 1.55434 15.7318 1.32035C15.1357 1.08993 14.4553 0.929084 13.4605 0.885229C12.4582 0.83766 12.14 0.82666 9.5979 0.82666C7.05581 0.82666 6.73763 0.83766 5.73905 0.881515C4.74419 0.92537 4.06024 1.08636 3.46772 1.31664C2.83849 1.55434 2.27526 1.92004 1.80705 2.39916C1.33156 2.86728 0.962216 3.43411 0.728039 4.0558C0.497577 4.65191 0.336696 5.33203 0.292833 6.32669C0.245255 7.32879 0.234253 7.64692 0.234253 10.1885C0.234253 12.7301 0.245255 13.0482 0.289118 14.0466C0.332982 15.0413 0.494005 15.7251 0.724467 16.3177C0.962216 16.9466 1.33156 17.5098 1.80705 17.9779C2.27526 18.4533 2.8422 18.8227 3.46401 19.0567C4.06024 19.2871 4.74048 19.448 5.73548 19.4918C6.73391 19.5358 7.05224 19.5467 9.59433 19.5467C12.1364 19.5467 12.4546 19.5358 13.4532 19.4918C14.448 19.448 15.132 19.2871 15.7245 19.0567C16.9828 18.5703 17.9777 17.5756 18.4642 16.3177C18.6945 15.7216 18.8555 15.0413 18.8994 14.0466C18.9433 13.0482 18.9543 12.7301 18.9543 10.1885C18.9543 7.64692 18.9505 7.32879 18.9067 6.33041ZM17.2206 13.9735C17.1803 14.8877 17.0267 15.3814 16.8987 15.7106C16.5841 16.5261 15.9367 17.1733 15.121 17.4879C14.7918 17.6159 14.2944 17.7695 13.3836 17.8096C12.396 17.8536 12.0998 17.8645 9.60161 17.8645C7.10339 17.8645 6.80349 17.8536 5.81949 17.8096C4.90507 17.7695 4.41129 17.6159 4.0821 17.4879C3.67618 17.3379 3.3067 17.1002 3.0068 16.7894C2.6959 16.4858 2.45815 16.1201 2.30813 15.7143C2.18011 15.3851 2.02651 14.8877 1.98636 13.9772C1.94236 12.9898 1.9315 12.6935 1.9315 10.1958C1.9315 7.69806 1.94236 7.39822 1.98636 6.41455C2.02651 5.5003 2.18011 5.00661 2.30813 4.67748C2.45815 4.2715 2.6959 3.90223 3.01051 3.60225C3.31399 3.2914 3.67975 3.0537 4.08581 2.90385C4.415 2.77586 4.9125 2.62229 5.82321 2.58201C6.81078 2.53815 7.10711 2.52715 9.60518 2.52715C12.1071 2.52715 12.4033 2.53815 13.3873 2.58201C14.3017 2.62229 14.7955 2.77586 15.1247 2.90385C15.5306 3.0537 15.9001 3.2914 16.2 3.60225C16.5109 3.90581 16.7486 4.2715 16.8987 4.67748C17.0267 5.00661 17.1803 5.50388 17.2206 6.41455C17.2644 7.40193 17.2754 7.69806 17.2754 10.1958C17.2754 12.6935 17.2644 12.9861 17.2206 13.9735Z" fill="#9E9E9E"/>
<path d="M9.5979 5.3796C6.94251 5.3796 4.78806 7.5335 4.78806 10.1885C4.78806 12.8435 6.94251 14.9974 9.5979 14.9974C12.2534 14.9974 14.4077 12.8435 14.4077 10.1885C14.4077 7.5335 12.2534 5.3796 9.5979 5.3796ZM9.5979 13.3079C7.87522 13.3079 6.47787 11.911 6.47787 10.1885C6.47787 8.46603 7.87522 7.06909 9.5979 7.06909C11.3207 7.06909 12.7179 8.46603 12.7179 10.1885C12.7179 11.911 11.3207 13.3079 9.5979 13.3079Z" fill="#9E9E9E"/>
<path d="M15.7209 5.18946C15.7209 5.80943 15.2181 6.31212 14.5979 6.31212C13.9778 6.31212 13.475 5.80943 13.475 5.18946C13.475 4.56935 13.9778 4.0668 14.5979 4.0668C15.2181 4.0668 15.7209 4.56935 15.7209 5.18946Z" fill="#9E9E9E"/>
</svg>
