<svg width="20" height="14" viewBox="0 0 20 14" fill="none" xmlns="http://www.w3.org/2000/svg">
<path d="M18.8486 2.68511C18.6329 1.88331 18.0006 1.25127 17.1987 1.03537C15.7338 0.634644 9.87407 0.634644 9.87407 0.634644C9.87407 0.634644 4.01458 0.634644 2.54967 1.02018C1.76324 1.23585 1.11551 1.88343 0.899789 2.68511C0.514282 4.14956 0.514282 7.18664 0.514282 7.18664C0.514282 7.18664 0.514282 10.239 0.899789 11.6882C1.11574 12.4899 1.74781 13.1219 2.54979 13.3378C4.03 13.7386 9.8743 13.7386 9.8743 13.7386C9.8743 13.7386 15.7338 13.7386 17.1987 13.3531C18.0007 13.1373 18.6329 12.5053 18.8488 11.7036C19.2342 10.239 19.2342 7.20206 19.2342 7.20206C19.2342 7.20206 19.2496 4.14956 18.8486 2.68511ZM8.00847 9.99241V4.38088L12.8811 7.18664L8.00847 9.99241Z" fill="#9E9E9E"/>
</svg>
