<svg width="19" height="20" viewBox="0 0 19 20" fill="none" xmlns="http://www.w3.org/2000/svg">
<path fill-rule="evenodd" clip-rule="evenodd" d="M15.8168 3.54714C14.0764 1.79374 11.7617 0.827688 9.29586 0.82666C4.2147 0.82666 0.0793683 4.98782 0.0773245 10.1022C0.0766433 11.7371 0.501077 13.3331 1.30782 14.7398L0 19.5467L4.88689 18.2567C6.23342 18.9958 7.74937 19.3853 9.29211 19.3858H9.29597C14.3766 19.3858 18.5124 15.2243 18.5143 10.1097C18.5153 7.63094 17.5573 5.30043 15.8168 3.54714ZM9.29586 17.8192H9.29268C7.91787 17.8186 6.56952 17.4468 5.39296 16.7445L5.1133 16.5773L2.21334 17.3429L2.98738 14.4977L2.80514 14.206C2.03814 12.9784 1.63313 11.5596 1.63381 10.1028C1.6354 5.85183 5.07265 2.39336 9.29893 2.39336C11.3455 2.39405 13.2693 3.19705 14.7158 4.65441C16.1624 6.11177 16.9586 8.0489 16.9579 10.1091C16.9561 14.3604 13.5191 17.8192 9.29586 17.8192ZM13.4986 12.0447C13.2684 11.9286 12.1359 11.3681 11.9247 11.2906C11.7137 11.2133 11.56 11.1748 11.4066 11.4067C11.2529 11.6386 10.8116 12.1608 10.6771 12.3154C10.5427 12.4701 10.4085 12.4895 10.1781 12.3734C9.94773 12.2575 9.20559 12.0126 8.32573 11.223C7.64105 10.6084 7.1788 9.84937 7.04437 9.61743C6.91015 9.38526 7.04323 9.27191 7.14542 9.1444C7.39477 8.83282 7.64445 8.50616 7.72121 8.35157C7.79808 8.19686 7.75959 8.06147 7.70191 7.94549C7.64445 7.82952 7.1838 6.68866 6.99191 6.22443C6.80478 5.77265 6.61505 5.83367 6.47357 5.82658C6.33936 5.81984 6.18573 5.81847 6.03211 5.81847C5.87859 5.81847 5.62902 5.8764 5.41783 6.10857C5.20674 6.34063 4.61177 6.90129 4.61177 8.04216C4.61177 9.18302 5.43713 10.2852 5.55226 10.4399C5.6674 10.5946 7.17653 12.9357 9.48707 13.9396C10.0366 14.1786 10.4656 14.3211 10.8002 14.4279C11.3521 14.6043 11.854 14.5794 12.251 14.5198C12.6936 14.4532 13.6137 13.959 13.8058 13.4176C13.9977 12.8762 13.9977 12.4122 13.94 12.3154C13.8825 12.2187 13.7289 12.1608 13.4986 12.0447Z" fill="#9E9E9E"/>
</svg>
