<svg width="19" height="11" viewBox="0 0 19 11" fill="none" xmlns="http://www.w3.org/2000/svg">
<path d="M18.644 9.33705C18.6225 9.28996 18.6024 9.2509 18.5838 9.2196C18.2752 8.65571 17.6856 7.96357 16.8152 7.14298L16.7968 7.12419L16.7876 7.11497L16.7783 7.10553H16.769C16.374 6.72342 16.1238 6.4665 16.0191 6.33497C15.8274 6.0844 15.7845 5.83077 15.8892 5.57378C15.9632 5.37962 16.2412 4.96957 16.7226 4.34308C16.9758 4.01107 17.1763 3.74496 17.3244 3.54448C18.3924 2.10373 18.8554 1.18307 18.7133 0.782135L18.6582 0.688444C18.6211 0.632038 18.5254 0.580436 18.3713 0.533376C18.2168 0.486415 18.0193 0.478649 17.7785 0.509945L15.1119 0.528637C15.0687 0.513104 15.007 0.514552 14.9266 0.533376C14.8464 0.5522 14.8062 0.561645 14.8062 0.561645L14.7598 0.585175L14.723 0.613444C14.6921 0.632136 14.6581 0.665013 14.6211 0.712007C14.5842 0.758836 14.5533 0.813794 14.5287 0.876419C14.2384 1.63435 13.9083 2.33903 13.5378 2.99043C13.3094 3.37885 13.0996 3.71548 12.9081 4.0005C12.7168 4.28543 12.5563 4.49535 12.4267 4.62992C12.297 4.76462 12.1799 4.87252 12.0748 4.95404C11.9698 5.03559 11.8897 5.07004 11.8342 5.05744C11.7785 5.04483 11.7262 5.03233 11.6766 5.01982C11.5902 4.96342 11.5208 4.88671 11.4684 4.78963C11.4158 4.69254 11.3804 4.57035 11.3618 4.42315C11.3434 4.27585 11.3325 4.14915 11.3294 4.04263C11.3265 3.93623 11.3279 3.78574 11.3341 3.59157C11.3405 3.39731 11.3434 3.26587 11.3434 3.19696C11.3434 2.9589 11.348 2.70053 11.3572 2.42179C11.3665 2.14305 11.3741 1.9222 11.3804 1.7595C11.3867 1.59663 11.3896 1.42432 11.3896 1.24266C11.3896 1.06101 11.3787 0.918543 11.3572 0.815143C11.3359 0.711874 11.3032 0.611634 11.2602 0.514454C11.2169 0.417372 11.1535 0.342274 11.0704 0.288961C10.9871 0.235715 10.8835 0.19346 10.7602 0.162064C10.433 0.0869332 10.0164 0.0462907 9.51008 0.0399721C8.36198 0.0274667 7.62426 0.102697 7.2971 0.265563C7.16747 0.334376 7.05016 0.428397 6.94528 0.54733C6.83414 0.685185 6.81864 0.760416 6.89887 0.772789C7.2693 0.829097 7.53154 0.963793 7.68588 1.17675L7.7415 1.28959C7.78477 1.37101 7.82796 1.51515 7.87119 1.72182C7.91436 1.92849 7.94222 2.15711 7.95448 2.40754C7.98529 2.86488 7.98529 3.25636 7.95448 3.58203C7.92357 3.90783 7.89438 4.16146 7.86652 4.34312C7.83867 4.52477 7.79702 4.67198 7.7415 4.78469C7.68588 4.89744 7.64888 4.96635 7.63033 4.99136C7.61181 5.01637 7.59637 5.03213 7.58411 5.03832C7.50388 5.06952 7.42043 5.08541 7.33407 5.08541C7.24757 5.08541 7.14269 5.04151 7.01926 4.95378C6.89586 4.86604 6.76778 4.74553 6.63504 4.59204C6.5023 4.43852 6.3526 4.22399 6.18587 3.94841C6.01927 3.67283 5.84641 3.34713 5.66739 2.97131L5.51928 2.69875C5.42669 2.52341 5.3002 2.26811 5.1397 1.93306C4.9791 1.59788 4.83715 1.27366 4.71375 0.960469C4.66442 0.828932 4.59032 0.72879 4.49156 0.659879L4.44522 0.63161C4.41441 0.606599 4.36495 0.580041 4.2971 0.551739C4.22916 0.523471 4.15827 0.503199 4.08413 0.490726L1.54706 0.509419C1.2878 0.509419 1.1119 0.569017 1.01927 0.688048L0.982204 0.744356C0.963686 0.775718 0.954346 0.825806 0.954346 0.89475C0.954346 0.963661 0.972864 1.04824 1.00993 1.14838C1.3803 2.03166 1.78306 2.88351 2.21823 3.70406C2.65339 4.52461 3.03154 5.18559 3.35245 5.6864C3.67342 6.18757 4.00058 6.66057 4.33395 7.10517C4.66731 7.54993 4.88797 7.83496 4.99593 7.96018C5.10403 8.08562 5.18893 8.17941 5.25065 8.24204L5.48218 8.4675C5.63032 8.61786 5.84787 8.79794 6.13492 9.00773C6.42203 9.21766 6.73989 9.42433 7.08866 9.62807C7.43749 9.83148 7.8433 9.99747 8.30633 10.1258C8.76928 10.2544 9.21988 10.3059 9.65819 10.281H10.723C10.939 10.2621 11.1026 10.1932 11.2138 10.0743L11.2507 10.0272C11.2754 9.9898 11.2986 9.93172 11.32 9.85356C11.3417 9.77527 11.3525 9.68902 11.3525 9.59519C11.3461 9.3259 11.3663 9.08319 11.4125 8.86711C11.4587 8.6511 11.5113 8.48823 11.5701 8.37855C11.6289 8.26896 11.6953 8.17649 11.7691 8.10152C11.8431 8.02639 11.8959 7.98088 11.9268 7.96521C11.9575 7.94945 11.9821 7.93875 12.0006 7.93233C12.1488 7.88225 12.3231 7.93075 12.5239 8.07809C12.7246 8.22529 12.9128 8.40705 13.0888 8.62306C13.2647 8.83927 13.4761 9.08185 13.723 9.35114C13.97 9.62053 14.186 9.82078 14.3711 9.95252L14.5563 10.0653C14.6799 10.1405 14.8404 10.2094 15.038 10.272C15.2352 10.3346 15.408 10.3503 15.5563 10.319L17.9266 10.2815C18.1611 10.2815 18.3435 10.2421 18.4729 10.1639C18.6026 10.0856 18.6796 9.99938 18.7044 9.90556C18.7292 9.81163 18.7306 9.70507 18.7091 9.58594C18.6872 9.46711 18.6656 9.38402 18.644 9.33705Z" fill="#9E9E9E"/>
</svg>
